<svg xmlns="http://www.w3.org/2000/svg" width="810" height="810" viewBox="0 0 810 810">
  <g id="Group_3" data-name="Group 3" transform="translate(-107 -107)">
    <circle id="Ellipse_8" data-name="Ellipse 8" cx="405" cy="405" r="405" transform="translate(107 107)" fill="#786bc0"/>
    <g id="Group_2" data-name="Group 2" transform="translate(46.385 68.777)">
      <path id="Path_61" data-name="Path 61" d="M351.226,228.117a40.357,40.357,0,0,1,13.353.4c7.839,1.39,13.338-5.306,19.761-11.48,50.365-48.4,131.355-44.977,177.46,6a11.492,11.492,0,0,0,9.534,4.32c31.668-.119,60.344,21.552,67.539,52.335,9.248,39.563-12,76.8-53.031,86.247-4.316.994-5.277,2.767-5.231,6.749q.266,23.308,0,46.621c-.044,3.759.979,5.855,4.795,6.9a49.152,49.152,0,0,1,9.8,4.11c4.874,2.577,6.563,7.8,4.348,12.407-2.421,5.036-7.455,6.914-12.762,4.575-24.467-10.785-50.416-15.312-76.772-18.188a406.306,406.306,0,0,0-89.049.119c-26.123,2.908-51.865,7.387-76.071,18.307a9.545,9.545,0,0,1-12.834-4.593,9.726,9.726,0,0,1,4.852-12.789,73.8,73.8,0,0,1,10.386-4.194c3.45-1.075,4.26-3.1,3.945-7.068a275.926,275.926,0,0,1,.026-44.832c.461-5.526-.909-7.15-5.419-8.122-32.534-7.008-56.025-35.993-55.235-69.274C291.429,262.738,314.925,233.855,351.226,228.117ZM580.677,346.99c14.4-.643,24.049-8.528,31.5-18.23,8.795-11.449,12.49-24.727,9.557-39.782-4.751-24.39-25.824-42.84-50.612-42.63-18.861.159-33.2,8.812-43.727,24.275-1.407,2.066-3.527,4.911-5.488,5.054-3.341.244-7.51-.464-10.072-2.42-3.634-2.774-3.666-7.743-.98-11.225a163.9,163.9,0,0,1,17.267-19.668c4.482-4.2,10.37-6.9,15.963-10.487-1.819-1.709-3.359-3.328-5.071-4.737-26.289-21.635-56.181-29.763-89.67-23.161-29.813,5.877-53.1,21.595-68.488,48.029-4.006,6.883-6.38,14.7-9.693,22.007-2.114,4.658-6.63,6.721-11.034,5.315-5.029-1.605-7.227-5.238-6.538-10.338a42.294,42.294,0,0,1,2.329-8.637c1.635-4.5,3.543-8.9,5.554-13.89-2.323,0-3.981-.124-5.617.018-37.964,3.293-58.931,47.964-37.521,79.481,13.8,20.307,42.83,30.821,69.557,15.153,5.941-3.483,10.716-2.123,13.788,3.3,2.749,4.852,1.345,10.127-4.634,13a169.885,169.885,0,0,1-22.354,8.659c-3.349,1.062-4.464,2.364-4.411,5.754.171,11.042.063,22.088.062,33.132v13.471c64.037-14.275,127.268-14.22,191.295-.056v-7.334q0-40.417.016-80.834c.009-7.862,3.283-12.083,9.279-12.2,6.337-.12,9.66,4.062,9.732,12.352C580.716,335.764,580.677,341.167,580.677,346.99Z" transform="translate(0 0)" fill="#fff"/>
      <path id="Path_62" data-name="Path 62" d="M438.285,736.534c-9.1-3.479-18.2-6.32-26.715-10.4a253.546,253.546,0,0,1-25.719-14.714c-5.387-3.4-6.349-9.633-3.026-14.131,3-4.057,8.663-4.949,13.566-1.5,29.345,20.667,62.332,28.613,97.651,27.162,28.939-1.19,55.885-9.413,80.055-25.949,2.7-1.844,6.787-3.423,9.656-2.732,2.8.674,5.789,4.018,7.017,6.9,1.685,3.964-.4,7.955-4.138,10.057-11.209,6.308-22.448,12.6-33.974,18.29-5.785,2.857-12.22,4.4-17.972,6.4,7.008,6.987,14.544,13.42,20.766,20.939,11.562,13.972,17.243,30.466,17.968,48.6.373,9.32-2.944,12.776-12.181,12.589-30.2-.612-54.476-12.817-72.447-37.261a35.1,35.1,0,0,0-2.573-2.816c-5.041,5.626-9.518,11.407-14.782,16.353-16.209,15.229-35.714,22.82-57.87,23.665-12.452.475-16.386-3.534-14.791-15.974a114.176,114.176,0,0,1,4.577-20.638c5.923-18.255,17.478-32.411,33.1-43.364C437.048,737.608,437.581,737.111,438.285,736.534Zm114.7,61.759c-2.643-28.838-33.28-60.214-74.839-55.916-29.44,3.045-61.584,33.12-58.36,56.039,3.293-.636,6.622-1.054,9.826-1.932,22.315-6.111,37.115-20.85,46.776-41.278,1.994-4.215,4.444-7.391,9.458-7.5,5.3-.113,7.552,3.438,10.055,7.537,4.94,8.09,9.831,16.45,16.176,23.388C522.739,790.293,536.544,796.584,552.986,798.294Z" transform="translate(-20.044 -113.425)" fill="#fff"/>
      <path id="Path_63" data-name="Path 63" d="M380.889,538.5a.215.215,0,0,0-.07.008h-.109A1.372,1.372,0,0,1,380.889,538.5Z" transform="translate(-20.002 -78.983)" fill="#fff"/>
      <path id="Path_64" data-name="Path 64" d="M393.695,634.125q-2.556-3.816-4.925-7.9Z" transform="translate(-21.791 -98.455)" fill="#fff"/>
      <path id="Path_65" data-name="Path 65" d="M437.563,674.808c-17.008-8.55-31.16-21.567-42.433-38.388C407.2,653.435,421.357,666.335,437.563,674.808Z" transform="translate(-23.202 -100.719)" fill="#fff"/>
      <path id="Path_66" data-name="Path 66" d="M641.795,626.26a21.039,21.039,0,0,1-2.155,3.867q-1.3,1.949-2.63,3.828Q639.5,630.232,641.795,626.26Z" transform="translate(-76.894 -98.464)" fill="#fff"/>
      <path id="Path_67" data-name="Path 67" d="M648.326,616.14c-.125.638-.241,1.268-.366,1.883-.163-.054-.327-.1-.49-.148C647.758,617.3,648.046,616.724,648.326,616.14Z" transform="translate(-79.216 -96.217)" fill="#fff"/>
      <path id="Path_68" data-name="Path 68" d="M597.908,549.758a114.983,114.983,0,0,1-11.468,49.124c0,.008-.008.008-.008.016v.008c-.28.584-.568,1.159-.856,1.735-.669,1.307-1.354,2.606-2.077,3.9-.42.747-.833,1.486-1.268,2.217v.008c0,.008-.008.008-.008.016q-2.3,3.968-4.785,7.695c-.008.016-.016.023-.023.039-11.344,16.976-25.6,30.094-42.776,38.676a.192.192,0,0,0-.054.031c-.039.023-.086.039-.125.062a110.531,110.531,0,0,1-35.984,10.6,136.866,136.866,0,0,1-14.985,1.043h-.218a137.06,137.06,0,0,1-15.21-1.043,110.44,110.44,0,0,1-35.75-10.5c-.21-.1-.42-.21-.63-.319-16.206-8.473-30.366-21.372-42.433-38.388-.008-.008-.016-.023-.023-.031l-4.925-7.9v-.008c-.42-.731-.84-1.463-1.253-2.2-.724-1.292-1.408-2.591-2.077-3.9-.288-.576-.576-1.151-.856-1.727v-.008a114.867,114.867,0,0,1-11.476-49.148c0-.233,0-.467.008-.692,0-.078-.008-.156,0-.233.226-6.333,3.8-10.215,9.305-10.324a.132.132,0,0,1,.078,0h.109a.215.215,0,0,1,.07-.008h.031c.14,0,.272,0,.4.008s.241.008.358.016a.07.07,0,0,1,.039.008c.257.016.513.047.762.078.171.023.335.054.49.086.14.023.28.054.42.086.156.039.311.078.459.125,3.945,1.214,6.209,5.018,6.426,11.04.4,11.312,1.906,22.485,6.279,32.856,0,.008.008.016.008.023s.008.023.016.031a89.891,89.891,0,0,0,16.23,29.067c.817.98,1.657,1.937,2.536,2.886a90.388,90.388,0,0,0,19.723,16.043l.016.016c15.693,10.5,32.654,15.911,50.7,15.545h.327c18.027.366,34.972-5.034,50.657-15.522l.047-.023a90.763,90.763,0,0,0,19.738-16.058q1.307-1.424,2.544-2.9a89.944,89.944,0,0,0,16.206-29.012c0-.008.008-.023.008-.031,4.4-10.387,5.9-21.582,6.31-32.918.194-5.563,2.147-9.227,5.547-10.713a2.889,2.889,0,0,1,.428-.171c.148-.054.3-.109.451-.156s.3-.086.459-.125a11.251,11.251,0,0,1,2.474-.28c5.734-.016,9.445,3.976,9.593,10.573v.093C597.908,549.361,597.908,549.556,597.908,549.758Z" transform="translate(-17.322 -78.983)" fill="#fff"/>
      <path id="Path_71" data-name="Path 71" d="M377.955,538.507c-5.508.109-9.08,3.991-9.305,10.324-.1-6.419,3.478-10.068,8.947-10.332A2.707,2.707,0,0,1,377.955,538.507Z" transform="translate(-17.324 -78.982)" fill="#fff"/>
      <path id="Path_72" data-name="Path 72" d="M393.695,634.125q-2.556-3.816-4.925-7.9Z" transform="translate(-21.791 -98.455)" fill="#fff"/>
      <path id="Path_73" data-name="Path 73" d="M501.441,697.708c-18.758.218-35.758-3.719-50.961-11.538a110.44,110.44,0,0,0,35.75,10.5A137.06,137.06,0,0,0,501.441,697.708Z" transform="translate(-35.489 -111.762)" fill="#fff"/>
    </g>
  </g>
</svg>
